<?xml version="1.0" encoding="utf-8"?>
<!-- Generator: Adobe Illustrator 24.1.2, SVG Export Plug-In . SVG Version: 6.00 Build 0)  -->
<svg version="1.1" id="Layer_1" xmlns="http://www.w3.org/2000/svg" xmlns:xlink="http://www.w3.org/1999/xlink" x="0px" y="0px"
	 viewBox="0 0 120 30" style="enable-background:new 0 0 120 30;" xml:space="preserve">
<style type="text/css">
	.st0{fill-rule:evenodd;clip-rule:evenodd;fill:#FFFFFF;}
</style>
<desc>Created with Sketch.</desc>
<g id="Logos-_x2F_-F1-logo-red">
	<g id="Page-1">
		<g id="Fill-1">
			<path id="path-1_1_" class="st0" d="M101.1,30h0.6v-2.9h0l1,2.9h0.5l1-2.9h0V30h0.6v-3.7h-0.9l-1,2.9h0l-1-2.9h-0.9V30z
				 M97.6,26.8h1.2V30h0.7v-3.2h1.2v-0.6h-3V26.8z M90,30l30-30h-18.1l-30,30H90z M85.7,13.1H49.4c-11.1,0-13,0.6-17.7,5.3
				C27.2,22.8,20,30,20,30h15.7l3.8-3.8c2.5-2.5,3.7-2.7,8.9-2.7h26.8L85.7,13.1z M31.2,16.3c-3.3,3.1-10.4,10-14.2,13.7H0
				c0,0,13.6-13.5,21.1-20.9C28.8,1.7,32.7,0,46.9,0h51.8L87.5,11.2H48C38,11.2,35.8,11.9,31.2,16.3z"/>
		</g>
	</g>
</g>
</svg>
